<svg xmlns="http://www.w3.org/2000/svg" viewBox="0 0 140 28.66"><defs><style>.cls-1{fill:#0078c8;}.cls-2{fill:#969ba0;}</style></defs><title>logo</title><g id="レイヤー_2" data-name="レイヤー 2"><g id="gc_black_big"><path d="M52.76,18.74H46.3a2.05,2.05,0,0,1-2-2V13.07a2.05,2.05,0,0,1,2-2.05h8.82V8.82H46.3a4.42,4.42,0,0,0-4.41,4.41v3.31a4.42,4.42,0,0,0,4.41,4.4h8.82V13.25H52.76Z"/><path d="M102.36,18.74H93.54a2,2,0,0,1-2-2V13.07a2,2,0,0,1,2-2.05h8.82V8.82H93.54a4.42,4.42,0,0,0-4.41,4.41v3.31a4.42,4.42,0,0,0,4.41,4.4h8.82Z"/><path d="M59.37,18.74V8.82H57V19.21a1.72,1.72,0,0,0,1.73,1.73h1.73v-2.2Z"/><path d="M69.13,11H61.89v2.21H69a1.28,1.28,0,0,1,1.26,1.26v.39H64.61a3,3,0,1,0,0,6.06h4.52a3.47,3.47,0,0,0,3.47-3.46v-3A3.48,3.48,0,0,0,69.13,11ZM69,18.74H64.61a.83.83,0,1,1,0-1.65l5.63,0v.43A1.28,1.28,0,0,1,69,18.74Z"/><path d="M132.6,18.74a1.28,1.28,0,0,1-1.26-1.26v-.39H137A3,3,0,0,0,137,11h-4.53A3.48,3.48,0,0,0,129,14.49v3a3.47,3.47,0,0,0,3.46,3.46h7.25v-2.2Zm0-5.51H137a.83.83,0,1,1,0,1.65l-5.63,0v-.43A1.28,1.28,0,0,1,132.6,13.23Z"/><path d="M82.83,8.82V11H77.48A3.47,3.47,0,0,0,74,14.49v3a3.46,3.46,0,0,0,3.46,3.46H82a3,3,0,0,0,3-3V8.82ZM82,18.74H77.64a1.28,1.28,0,0,1-1.26-1.26v-3a1.28,1.28,0,0,1,1.26-1.26h5.19v4.68A.83.83,0,0,1,82,18.74Z"/><path d="M116.54,8.82v9.09a3,3,0,0,0,3,3h4.52a3.47,3.47,0,0,0,3.47-3.46v-3A3.48,3.48,0,0,0,124.09,11h-5.35V8.82Zm2.2,9.09V13.23h5.2a1.28,1.28,0,0,1,1.26,1.26v3a1.28,1.28,0,0,1-1.26,1.26h-4.37A.83.83,0,0,1,118.74,17.91Z"/><path d="M112.44,11v6.62a1.11,1.11,0,0,1-1.1,1.1h-4.1a1.12,1.12,0,0,1-1.1-1.1V11h-2.36v6.46a3.47,3.47,0,0,0,3.46,3.46h4.1a3.47,3.47,0,0,0,3.46-3.46V11Z"/><polygon class="cls-1" points="8.82 9.92 8.82 14.33 17.64 14.33 17.64 19.84 4.72 19.84 4.72 4.41 18.08 4.41 18.08 0 0 0 0 24.25 22.36 24.25 22.36 9.92 8.82 9.92"/><polygon class="cls-2" points="11.02 4.41 11.02 19.84 15.75 19.84 15.75 8.82 28.66 8.82 28.66 14.33 33.39 14.33 33.39 4.41 11.02 4.41"/><polygon class="cls-2" points="28.66 18.74 28.66 24.25 11.02 24.25 11.02 28.66 33.39 28.66 33.39 18.74 28.66 18.74"/></g></g></svg>