<?xml version="1.0" encoding="utf-8"?>
<!-- Generator: Adobe Illustrator 26.5.0, SVG Export Plug-In . SVG Version: 6.00 Build 0)  -->
<svg version="1.1" id="レイヤー_1" xmlns="http://www.w3.org/2000/svg" xmlns:xlink="http://www.w3.org/1999/xlink" x="0px"
	 y="0px" viewBox="0 0 300 64" style="enable-background:new 0 0 300 64;" xml:space="preserve">
<style type="text/css">
	.st0{display:none;}
	.st1{display:inline;}
	.st2{fill:#253138;}
	.st3{fill:url(#SVGID_1_);}
	.st4{fill:url(#SVGID_00000032629332173843991610000007381393811995230081_);}
	.st5{fill:url(#SVGID_00000115489480624669446510000002856752279416698504_);}
	.st6{fill:#1B383F;}
	.st7{fill:url(#SVGID_00000179643944275285054210000007600581752026567823_);}
	.st8{fill:url(#SVGID_00000070087899459364110400000005779443617295232907_);}
	.st9{fill:url(#SVGID_00000075884103090243587600000011103670508458023352_);}
</style>
<g class="st0">
	<g class="st1">
		<path class="st2" d="M86.6,43.5c0,23.9-19.4,43.3-43.3,43.3S0,67.4,0,43.5S19.4,0.2,43.3,0.2S86.6,19.6,86.6,43.5z"/>
		<g>
			
				<linearGradient id="SVGID_1_" gradientUnits="userSpaceOnUse" x1="7.2009" y1="46.2618" x2="49.2284" y2="46.2618" gradientTransform="matrix(1 0 0 -1 0 87.8898)">
				<stop  offset="0.3924" style="stop-color:#FFF100"/>
				<stop  offset="1" style="stop-color:#F39C00"/>
			</linearGradient>
			<path class="st3" d="M43.3,7.4c-10,0-18,8.1-18,18c0,8,5.2,14.8,12.4,17.1l0,0c1.6,0.5,3.1,1.3,4.5,2.4
				c7.6,5.6,9.3,16.3,3.8,23.9c-5.6,7.7-16.3,9.3-23.9,3.8l0,0C13.1,66,7.2,55.4,7.2,43.4C7.2,23.6,23.4,7.4,43.3,7.4"/>
			
				<linearGradient id="SVGID_00000171713734152519154700000000549779477886197429_" gradientUnits="userSpaceOnUse" x1="37.2953" y1="61.3895" x2="67.4314" y2="61.3895" gradientTransform="matrix(1 0 0 -1 0 87.8898)">
				<stop  offset="0.3924" style="stop-color:#FFF100"/>
				<stop  offset="1" style="stop-color:#F39C00"/>
			</linearGradient>
			<path style="fill:url(#SVGID_00000171713734152519154700000000549779477886197429_);" d="M64.5,14.3c-7.6-5.6-18.4-3.9-23.9,3.8
				C35,25.8,36.7,36.5,44.3,42l0,0c-4.4-3.2-5.4-9.4-2.2-13.8s9.4-5.4,13.8-2.2c3.2,2.3,7.7,1.6,10.1-1.6S67.7,16.7,64.5,14.3z"/>
			
				<linearGradient id="SVGID_00000085248087760011811470000008417677955057573776_" gradientUnits="userSpaceOnUse" x1="43.3009" y1="32.3398" x2="79.3631" y2="32.3398" gradientTransform="matrix(1 0 0 -1 0 87.8898)">
				<stop  offset="0.3924" style="stop-color:#FFF100"/>
				<stop  offset="1" style="stop-color:#F39C00"/>
			</linearGradient>
			<path style="fill:url(#SVGID_00000085248087760011811470000008417677955057573776_);" d="M43.3,79.6c19.9,0,36.1-16.1,36.1-36.1
				c0-6.6-5.4-12-12-12s-12,5.4-12,12c0,2.6,0.8,5.1,2.3,7l0,0c2.3,3,3.8,6.9,3.8,11C61.3,71.5,53.2,79.6,43.3,79.6z"/>
		</g>
	</g>
	<g class="st1">
		<path class="st2" d="M142.2,25.1l-4,8.6c-4.8-2.9-10.6-4.7-14.3-4.7c-3.5,0-5.8,1.2-5.8,3.7c0,8.5,24.4,3.7,24.4,20.3
			c0,9-7.8,13.8-18,13.8c-7.5,0-15.1-2.9-20.3-7.3l4.1-8.5c4.7,4.2,11.4,6.9,16.3,6.9c4.3,0,6.8-1.6,6.8-4.4
			c0-8.7-24.4-3.6-24.4-19.9c0-8.3,7.1-13.6,17.8-13.6C131.2,20.2,137.6,22.1,142.2,25.1z"/>
		<path class="st2" d="M167.3,20.6c11.7,0,18.4,5.8,18.4,15.9c0,10.7-6.7,16.8-18.4,16.8h-9.1v13.1h-10.4V20.6H167.3z M158.2,44.7
			h8.6c5.8,0,9-2.6,9-7.9c0-5.1-3.3-7.7-9-7.7h-8.6V44.7z"/>
		<path class="st2" d="M194.6,57.6l-3.6,8.9h-10.7l19.9-45.9h10.7l19.6,45.9h-11.1l-3.6-8.9H194.6z M205.3,31.4L198,49.3h14.5
			L205.3,31.4z"/>
		<path class="st2" d="M234.9,66.5V20.6h10.4v45.9H234.9z"/>
		<path class="st2" d="M264.1,57.6l-3.6,8.9h-10.7l19.9-45.9h10.7L300,66.5h-11.1l-3.6-8.9H264.1z M274.8,31.4l-7.3,17.8H282
			L274.8,31.4z"/>
	</g>
</g>
<g>
	<g>
		<path class="st6" d="M63.8,32.1C63.8,49.8,49.5,64,31.9,64C14.3,64,0,49.8,0,32.1C0,14.5,14.3,0.2,31.9,0.2
			C49.5,0.2,63.8,14.5,63.8,32.1z"/>
		
			<linearGradient id="SVGID_00000078740891691639063190000017966181511428126345_" gradientUnits="userSpaceOnUse" x1="5.3172" y1="30.8047" x2="36.3177" y2="30.8047">
			<stop  offset="0" style="stop-color:#00FF66"/>
			<stop  offset="1" style="stop-color:#009A66"/>
		</linearGradient>
		<path style="fill:url(#SVGID_00000078740891691639063190000017966181511428126345_);" d="M31.9,5.6c-7.3,0-13.3,5.9-13.3,13.3
			c0,5.9,3.8,10.9,9.2,12.6h0c1.2,0.4,2.3,1,3.3,1.7c5.6,4.1,6.9,12,2.8,17.6c-4.1,5.6-12,6.9-17.6,2.8h0c-6.6-4.8-11-12.7-11-21.5
			C5.3,17.5,17.2,5.6,31.9,5.6"/>
		
			<linearGradient id="SVGID_00000015330570823658236550000011225337309848915635_" gradientUnits="userSpaceOnUse" x1="27.4815" y1="19.6383" x2="49.7148" y2="19.6383">
			<stop  offset="0" style="stop-color:#00FF66"/>
			<stop  offset="1" style="stop-color:#009A66"/>
		</linearGradient>
		<path style="fill:url(#SVGID_00000015330570823658236550000011225337309848915635_);" d="M47.5,10.6C41.9,6.5,34,7.8,29.9,13.4
			C25.8,19.1,27,27,32.7,31.1h0c-3.3-2.4-4-6.9-1.6-10.2c2.4-3.3,6.9-4,10.2-1.6c2.4,1.7,5.7,1.2,7.4-1.2
			C50.4,15.7,49.9,12.4,47.5,10.6z"/>
		
			<linearGradient id="SVGID_00000106143385822357298590000014009154421749574272_" gradientUnits="userSpaceOnUse" x1="31.9005" y1="40.9928" x2="58.4795" y2="40.9928">
			<stop  offset="0" style="stop-color:#00FF66"/>
			<stop  offset="1" style="stop-color:#009A66"/>
		</linearGradient>
		<path style="fill:url(#SVGID_00000106143385822357298590000014009154421749574272_);" d="M31.9,58.7c14.7,0,26.6-11.9,26.6-26.6
			c0-4.9-4-8.9-8.9-8.9c-4.9,0-8.9,4-8.9,8.9c0,1.9,0.6,3.7,1.7,5.2h0c1.7,2.2,2.8,5.1,2.8,8.1C45.2,52.8,39.2,58.7,31.9,58.7z"/>
	</g>
	<g>
		<g>
			<path id="競馬_00000031168166157283994980000003286700982664514179_" class="st6" d="M229.2,16h1.4c0-1,0-1.5-0.2-2.4h6.1
				c-0.2,0.7-0.2,1.2-0.2,2.4h2.4c1.2,0,1.9,0,2.7-0.2v5.1c-1,0-1,0-1.5,0c-0.2,0.7-0.5,1.5-0.7,2c1.2,0,1.5,0,2.4-0.2v5.1
				c-0.7,0-1.2,0-2.5,0h-10.9c-2.4,0-3.1,0-4.1,0.2v-5.3c0.8,0.2,1.7,0.2,3.6,0.2c-0.2-0.8-0.3-1.4-0.5-2c-1,0-1.4,0-2,0.2v-5.3
				C225.9,16,227,16,229.2,16z M232.4,22.9h1.7c0.2-0.7,0.3-1,0.5-2h-2.7C232.2,21.6,232.2,21.9,232.4,22.9z M232.2,50.3l-0.8-5.3
				c-1,2.5-2.2,4.1-4.2,6.1c-1.2-1.9-2.2-3.1-3.7-4.4c2.7-2.2,3.9-4.6,4.1-8.2c-0.8,0-1.4,0-2.2,0.2c0.2-0.8,0.2-1.5,0.2-2.7v-4.4
				c0-1.4,0-1.9-0.2-2.7c0.8,0,1.5,0,3.6,0h9c1.7,0,2.2,0,3.2,0c0,0.7-0.2,1.2-0.2,2.5v4.8c0,1.5,0,1.9,0.2,2.5c-1,0-1,0-2.4,0v3.7
				c1.2-0.5,1.7-0.7,3.2-1.4l0.2,3.6c1.2-1.4,1.9-3.2,2-5.9c-0.8,0-0.8,0-1.5,0c0.2-0.7,0.2-1.2,0.2-2.5v-4.8c0-1.4,0-1.7-0.2-2.5
				c0.8,0,1.7,0,3.2,0h9.7c1.9,0,2.5,0,3.6,0c0,0.7-0.2,1.2-0.2,2.7V36c0,1.2,0,2,0.2,2.7c-1.2,0-2-0.2-3.6-0.2v5.8
				c0,0.3,0.2,0.5,0.5,0.5c0.5,0,0.7-0.2,0.7-0.7s0.2-2,0.2-3.6c1.4,0.7,2.4,1,4.1,1.4c-0.2,4.1-0.3,5.3-0.8,6.5
				c-0.2,0.3-0.5,0.8-1.2,1.2c-0.7,0.5-2,0.7-4.1,0.7c-3.6,0-4.6-0.7-4.6-3.1v-8.7h-0.8c-0.3,3.2-0.3,3.4-0.7,4.4
				c-0.8,3.6-2.4,5.8-5.6,8.2c-1.2-1.5-2.4-2.9-3.4-3.9c-1.5,0.7-1.5,0.7-4.2,1.7C234.6,49.4,233.4,49.8,232.2,50.3z M233.6,38.6
				h-0.8c-0.3,2.9-0.5,3.9-1,5.8c0.5,0,1.2-0.3,2-0.5v-5.3H233.6z M231.2,32.8v1.7h4.2v-1.7H231.2z M253.1,32.8h-4.8v1.7h4.8V32.8z
				 M245.1,16h2.7c0-1,0-1.5-0.2-2.4h6.1c-0.2,0.7-0.2,1.2-0.2,2.4h1.7c2.2,0,3.1,0,4.2-0.2v5.3c-0.8-0.2-1.4-0.2-2.2-0.2
				c-0.2,0.8-0.5,1.2-0.8,2c2.4,0,2.7,0,3.7-0.2V28c-1-0.2-1.9-0.2-4.1-0.2H245c-1.4,0-1.9,0-2.5,0v-5.1c0.8,0,1.2,0.2,2.4,0.2
				c-0.2-0.7-0.3-1.2-0.7-2c-0.5,0-1,0-1.7,0v-5.1C243.1,16,244,16,245.1,16z M249.7,22.9h1.9c0.2-0.7,0.3-1,0.5-2h-3.1
				C249.4,21.6,249.6,22.1,249.7,22.9z M285.7,39.9l4.4-1.4c0.8,2,1.7,4.1,2.2,6.3c0.5-0.2,0.7-0.5,0.8-1.9c0.2-1.4,0.2-1.7,0.3-4.6
				h-22.6c-0.8,0-1.4,0-2.4,0l3.9,1.5c-1.2,4.6-2,7.1-3.9,10.5l-5.1-3.6c2-2.9,3.1-4.9,4.1-8.8l0.7,0.2c0-1.2,0.2-2.2,0.2-4.2V18.8
				c0-1.5,0-2.9-0.2-4.1c1,0.2,2.9,0.2,4.8,0.2h20.7c1.9,0,3.6,0,4.9-0.2v5.4c-1,0-1.7-0.2-3.2-0.2h-8.2v1.5h5.3
				c2.2,0,3.2,0,4.4-0.2v4.8c-1-0.2-1.7-0.2-4.2-0.2h-5.4v1.7h5.4c2.5,0,3.1,0,4.2-0.2v4.8c-1.2-0.2-2-0.2-4.2-0.2h-5.4v1.5h9
				c2,0,2.9,0,3.7-0.2c0,0.5-0.2,0.8-0.2,2c-0.3,7-0.8,10.7-1.9,12.4c-0.8,1.9-2.5,2.4-6.3,2.4c-0.3,0-0.8,0-1.4,0
				c-0.2-1.5-0.5-2.5-0.8-4.1l-1.9,0.7C287.1,44.5,286.4,41.6,285.7,39.9z M281.5,32.1h-7.3v1.5h7.3V32.1z M281.5,27.7V26h-7.3v1.7
				H281.5z M281.5,21.6V20h-7.3v1.5H281.5z M273,40.1l4.9-0.5c0.5,3.1,0.7,5.3,0.8,9.7l-5.4,0.7c0-0.7,0-1.2,0-1.5
				C273.3,45.4,273.2,44.2,273,40.1z M279.3,39.9l4.8-0.8c1,3.1,1.2,4.1,2,8.7l-5.3,1.2C280.3,45,279.9,42.8,279.3,39.9z"/>
			<g>
				<path class="st6" d="M104.2,18.6l-2.9,6.3c-3.6-2.1-7.8-3.5-10.5-3.5c-2.6,0-4.3,0.9-4.3,2.8c0,6.2,18,2.8,18,14.9
					c0,6.6-5.7,10.2-13.2,10.2c-5.6,0-11.1-2.1-14.9-5.4l3-6.2c3.5,3.1,8.4,5.1,12,5.1c3.1,0,5-1.2,5-3.2c0-6.4-18-2.7-18-14.6
					c0-6.1,5.3-10,13.1-10C96.1,14.9,100.8,16.4,104.2,18.6z"/>
				<path class="st6" d="M122.7,15.3c8.6,0,13.5,4.3,13.5,11.7c0,7.9-4.9,12.4-13.5,12.4H116v9.7h-7.6V15.3H122.7z M116,33.1h6.3
					c4.3,0,6.7-1.9,6.7-5.8c0-3.8-2.4-5.7-6.7-5.7H116V33.1z"/>
				<path class="st6" d="M142.8,42.5l-2.7,6.6h-7.9L147,15.3h7.9l14.4,33.8h-8.2l-2.7-6.6H142.8z M150.7,23.2l-5.4,13.1H156
					L150.7,23.2z"/>
				<path class="st6" d="M172.5,49.1V15.3h7.6v33.8H172.5z"/>
				<path class="st6" d="M194,42.5l-2.7,6.6h-7.9l14.7-33.8h7.9l14.4,33.8h-8.2l-2.7-6.6H194z M201.9,23.2l-5.4,13.1h10.7
					L201.9,23.2z"/>
			</g>
		</g>
	</g>
</g>
</svg>
