<svg xmlns="http://www.w3.org/2000/svg" viewBox="0 0 479.75 105.78"><defs><style>.cls-1{fill:#00978c;}</style></defs><title>sitest_green</title><g id="レイヤー_2" data-name="レイヤー 2"><g id="レイヤー_1-2" data-name="レイヤー 1"><path class="cls-1" d="M474.18.71a9,9,0,0,1,2.92,2,9.2,9.2,0,0,1,2.65,6.56,9.28,9.28,0,0,1-.7,3.63,9,9,0,0,1-4.87,4.86,9.84,9.84,0,0,1-7.29,0,8.91,8.91,0,0,1-2.92-2,9.08,9.08,0,0,1-2-2.91,9.29,9.29,0,0,1-.71-3.63A9.27,9.27,0,0,1,464,2.66,8.91,8.91,0,0,1,466.89.71a9.71,9.71,0,0,1,7.29,0Zm-6.76,1.22A7.76,7.76,0,0,0,465,3.62a7.57,7.57,0,0,0-1.63,2.5,8.57,8.57,0,0,0,0,6.2,7.67,7.67,0,0,0,1.63,2.5,7.82,7.82,0,0,0,11.12,0,7.86,7.86,0,0,0,1.64-2.5,8,8,0,0,0,.6-3.1,8,8,0,0,0-.6-3.1,7.86,7.86,0,0,0-10.3-4.19Zm-.23,12.62V3.89h4.09a3.84,3.84,0,0,1,2.64.76,2.81,2.81,0,0,1,.83,2.19,3.19,3.19,0,0,1-.21,1.21,2.48,2.48,0,0,1-.59.88,2.76,2.76,0,0,1-.85.57,4.39,4.39,0,0,1-1,.31l3.17,4.74h-1.53l-3-4.74H468.5v4.74Zm4.22-5.89a3.19,3.19,0,0,0,1-.21,1.54,1.54,0,0,0,.72-.56,1.77,1.77,0,0,0,.27-1,1.77,1.77,0,0,0-.21-.92,1.58,1.58,0,0,0-.57-.55,2.19,2.19,0,0,0-.8-.29,5.69,5.69,0,0,0-.94-.07H468.5V8.7h1.74C470.63,8.7,471,8.69,471.41,8.66Z"/><polygon class="cls-1" points="244.05 1.95 185.4 1.95 179.15 14.34 179.15 104.59 195 104.59 195 16.54 244.05 16.54 244.05 1.95"/><path class="cls-1" d="M301.11,72l.11-1.65c0-.64.09-1.36.11-2.13s0-1.9,0-3.38c0-12.7-2.8-21.78-8.3-27s-15-7.8-28.73-7.8H246.88c-13.07,0-22.58,2.5-28.28,7.45s-8.7,13.38-8.7,24.86V73.54c0,11.31,3,19.58,8.76,24.56s15.24,7.41,28.22,7.41h21c10.68,0,18.95-1.86,24.61-5.5,5.9-3.82,8.89-9.47,8.89-16.83V79.61H286.24v2.5a7.68,7.68,0,0,1-4.61,7.38c-3.43,1.79-8.95,2.7-16.38,2.7H247c-8.46,0-14.39-1.35-17.65-4s-4.74-7.31-4.74-14.13v-2ZM229.23,47.56c3.2-2.48,9.06-3.72,17.46-3.72h17.36c11.28,0,16,1.72,18,3.17,2.68,2,4.05,5.8,4.07,11.37H224.68C225,53.31,226.49,49.67,229.23,47.56Z"/><path class="cls-1" d="M393,66.3a17.65,17.65,0,0,0-8.64-4.61c-3.44-.84-9.38-1.24-18.12-1.24l-19.1.13c-13.17,0-17.93-1-19.6-1.84-2.05-1-3-3.21-3-6.63s1-5.42,3-6.39c1.68-.8,6.44-1.76,19.63-1.76H358c9.94,0,16.54.57,19.58,1.69,2.59.94,3.73,2.48,3.73,5v4.64h14.13V48.84c0-6.53-2.85-11.37-8.49-14.41-5.34-2.87-13.53-4.26-25-4.26H342c-11.65,0-19.68,1.57-24.57,4.82-5.07,3.35-7.62,9.11-7.62,17.12,0,8.38,2.17,14.14,6.45,17.12s12.55,4.28,25.74,4.28h28.74c6.26,0,9,1,10.12,1.83,1.52,1.09,2.29,3.32,2.29,6.64,0,5.59-1.18,7.41-1.88,8s-3.17,1.69-10.65,1.69H339.31c-9.49,0-12.56-1.43-13.54-2.29-1.65-1.43-2.51-4.7-2.51-9.44V77H309.57l0,1.79c.14,9.62,2.29,16.58,6.41,20.69s11.13,6.21,20.85,6.21h28.22c12.28,0,20.62-1.44,25.47-4.37,5.07-3.1,7.64-8.39,7.64-15.77,0-6-.38-10.05-1.14-12.51A16.36,16.36,0,0,0,393,66.3Z"/><path class="cls-1" d="M466,69V79.79c0,5.2-1,8.68-2.93,10.08-1.47,1-5,2.32-13.41,2.32-10.46,0-14.41-1.51-15.88-2.78-2-1.76-3.1-5.27-3.1-10.43V44h46.26V31H430.81v-16H416.55V31H401.5V44h15.05v34.3c0,6,.4,10.18,1.21,12.8a16.67,16.67,0,0,0,4.3,7,23.69,23.69,0,0,0,10,5.69,54.29,54.29,0,0,0,15,1.73c11.83,0,19.94-1.86,24.76-5.71s7.36-10.61,7.36-20V69Z"/><polygon class="cls-1" points="145.92 16.54 163.5 16.54 170.87 1.95 153.3 1.95 145.92 16.54"/><polygon class="cls-1" points="101.44 104.59 119.02 104.59 156.96 29.5 139.38 29.5 101.44 104.59"/><path class="cls-1" d="M103.32,72.13l8.43-16.65A18.37,18.37,0,0,0,105,48.86,28.22,28.22,0,0,0,95,45.56a124.09,124.09,0,0,0-17.81-1H41.57c-13.18,0-18.54-1.78-20.73-3.28-2.95-2-4.46-6-4.46-11.71s1.54-9.5,4.56-11.5c3.28-2.14,9.94-3.23,19.83-3.23h33.8c12.07,0,16.9,1.68,18.82,3.08,2.62,1.93,4,5.89,4,11.78v3.31h15.4V28.41A39.1,39.1,0,0,0,111,15.89a19.07,19.07,0,0,0-5.57-8.48c-3-2.49-7.18-4.25-12.37-5.23S79.44.75,66.92.75H44.43c-16.76,0-28,2.11-34.5,6.46S0,19.36,0,30.14c0,10.52,2.93,18.1,8.72,22.54s15.17,6.53,28.92,6.53H79.5c10.42,0,14.66,1.68,16.38,3.08,2.39,2,3.61,5.84,3.61,11.51a23.39,23.39,0,0,1-1.44,8.78Z"/><path class="cls-1" d="M94.16,87.55c-3.77,2.46-12.27,3.7-25.31,3.7H43c-10.8,0-18.21-1.14-22-3.4-3.54-2.13-5.25-5.87-5.25-11.47,0-.68,0-2,.12-3.82.05-.77.09-1.39.14-1.86l.17-1.93H.87L.63,70.24a7.23,7.23,0,0,0-.1,1.35c-.14,3-.2,5.14-.2,6.4,0,9.88,3.11,17.09,9.23,21.45s15.67,6.34,29.48,6.34h33.6A120.34,120.34,0,0,0,86.71,105L97.14,84.39A9.62,9.62,0,0,1,94.16,87.55Z"/></g></g></svg>