<?xml version="1.0" encoding="utf-8"?>
<!-- Generator: Adobe Illustrator 26.5.0, SVG Export Plug-In . SVG Version: 6.00 Build 0)  -->
<svg version="1.1" id="レイヤー_1" xmlns="http://www.w3.org/2000/svg" xmlns:xlink="http://www.w3.org/1999/xlink" x="0px"
	 y="0px" viewBox="0 0 300 87" style="enable-background:new 0 0 300 87;" xml:space="preserve">
<style type="text/css">
	.st0{fill:#253138;}
	.st1{fill:url(#SVGID_1_);}
	.st2{fill:url(#SVGID_00000157291811449894457500000013000124865191823032_);}
	.st3{fill:url(#SVGID_00000058571193936233827990000015206318512343773589_);}
</style>
<g>
	<g>
		<path class="st0" d="M86.6,43.5c0,23.9-19.4,43.3-43.3,43.3C19.4,86.8,0,67.4,0,43.5C0,19.6,19.4,0.2,43.3,0.2
			C67.2,0.2,86.6,19.6,86.6,43.5z"/>
		<g>
			<linearGradient id="SVGID_1_" gradientUnits="userSpaceOnUse" x1="7.2132" y1="41.6925" x2="49.2745" y2="41.6925">
				<stop  offset="0.3924" style="stop-color:#FFF100"/>
				<stop  offset="1" style="stop-color:#F39C00"/>
			</linearGradient>
			<path class="st1" d="M43.3,7.4c-10,0-18,8.1-18,18c0,8,5.2,14.8,12.4,17.1h0c1.6,0.5,3.1,1.3,4.5,2.4c7.6,5.6,9.3,16.3,3.8,23.9
				c-5.6,7.7-16.3,9.3-23.9,3.8h0c-9-6.6-14.9-17.2-14.9-29.2C7.2,23.6,23.4,7.4,43.3,7.4"/>
			
				<linearGradient id="SVGID_00000088101295010224250400000002507958708698828167_" gradientUnits="userSpaceOnUse" x1="37.2855" y1="26.5421" x2="67.4515" y2="26.5421">
				<stop  offset="0.3924" style="stop-color:#FFF100"/>
				<stop  offset="1" style="stop-color:#F39C00"/>
			</linearGradient>
			<path style="fill:url(#SVGID_00000088101295010224250400000002507958708698828167_);" d="M64.5,14.3c-7.6-5.6-18.4-3.9-23.9,3.8
				C35,25.8,36.7,36.5,44.3,42h0c-4.4-3.2-5.4-9.4-2.2-13.8c3.2-4.4,9.4-5.4,13.8-2.2c3.2,2.3,7.7,1.6,10.1-1.6
				C68.4,21.2,67.7,16.7,64.5,14.3z"/>
			
				<linearGradient id="SVGID_00000140736452910389075240000001315104404816757135_" gradientUnits="userSpaceOnUse" x1="43.2812" y1="55.5157" x2="79.3434" y2="55.5157">
				<stop  offset="0.3924" style="stop-color:#FFF100"/>
				<stop  offset="1" style="stop-color:#F39C00"/>
			</linearGradient>
			<path style="fill:url(#SVGID_00000140736452910389075240000001315104404816757135_);" d="M43.3,79.6c19.9,0,36.1-16.1,36.1-36.1
				c0-6.6-5.4-12-12-12c-6.6,0-12,5.4-12,12c0,2.6,0.8,5.1,2.3,7h0c2.3,3,3.8,6.9,3.8,11C61.3,71.5,53.2,79.6,43.3,79.6z"/>
		</g>
	</g>
	<g>
		<path class="st0" d="M142.2,25.1l-4,8.6c-4.8-2.9-10.6-4.7-14.3-4.7c-3.5,0-5.8,1.2-5.8,3.7c0,8.5,24.4,3.7,24.4,20.3
			c0,9-7.8,13.8-18,13.8c-7.5,0-15.1-2.9-20.3-7.3l4.1-8.5c4.7,4.2,11.4,6.9,16.3,6.9c4.3,0,6.8-1.6,6.8-4.4
			c0-8.7-24.4-3.6-24.4-19.9c0-8.3,7.1-13.6,17.8-13.6C131.2,20.2,137.6,22.1,142.2,25.1z"/>
		<path class="st0" d="M167.3,20.6c11.7,0,18.4,5.8,18.4,15.9c0,10.7-6.7,16.8-18.4,16.8h-9.1v13.1h-10.4V20.6H167.3z M158.2,44.7
			h8.6c5.8,0,9-2.6,9-7.9c0-5.1-3.3-7.7-9-7.7h-8.6V44.7z"/>
		<path class="st0" d="M194.6,57.6l-3.6,8.9h-10.7l19.9-45.9h10.7l19.6,45.9h-11.1l-3.6-8.9H194.6z M205.3,31.4L198,49.3h14.5
			L205.3,31.4z"/>
		<path class="st0" d="M234.9,66.5V20.6h10.4v45.9H234.9z"/>
		<path class="st0" d="M264.1,57.6l-3.6,8.9h-10.7l19.9-45.9h10.7L300,66.5h-11.1l-3.6-8.9H264.1z M274.8,31.4l-7.3,17.8H282
			L274.8,31.4z"/>
	</g>
</g>
</svg>
